<svg id="Gruppe_166" data-name="Gruppe 166" xmlns="http://www.w3.org/2000/svg" xmlns:xlink="http://www.w3.org/1999/xlink" width="285.721" height="101.286" viewBox="0 0 285.721 101.286">
  <defs>
    <clipPath id="clip-path">
      <rect id="Rechteck_55" data-name="Rechteck 55" width="285.721" height="101.285" fill="none"/>
    </clipPath>
  </defs>
  <path id="Pfad_134" data-name="Pfad 134" d="M71.279,21.894H87.151v4.652H76.691v2.986h9.472v4.314H76.691v3.13h10.6v4.65H71.279Z" transform="translate(21.068 6.471)" fill="#202b6d"/>
  <path id="Pfad_135" data-name="Pfad 135" d="M91.227,31.591l-6.484-9.7H91.03l3.494,5.554,3.525-5.554h6.145l-6.484,9.64,6.767,10.093H98.189l-3.778-5.948-3.805,5.948H84.46Z" transform="translate(24.964 6.471)" fill="#202b6d"/>
  <g id="Gruppe_167" data-name="Gruppe 167" transform="translate(0 0)">
    <g id="Gruppe_166-2" data-name="Gruppe 166" clip-path="url(#clip-path)">
      <path id="Pfad_136" data-name="Pfad 136" d="M101.274,21.894h8.459c4.989,0,8.2,2.565,8.2,6.934v.057c0,4.651-3.581,7.1-8.486,7.1h-2.706v5.637h-5.47Zm8.064,9.81c1.945,0,3.129-1.014,3.129-2.565v-.056c0-1.692-1.184-2.594-3.156-2.594h-2.567V31.7Z" transform="translate(29.934 6.471)" fill="#202b6d"/>
      <path id="Pfad_137" data-name="Pfad 137" d="M115.7,21.894h15.872v4.652H121.109v2.986h9.472v4.314h-9.472v3.13h10.6v4.65H115.7Z" transform="translate(34.197 6.471)" fill="#202b6d"/>
      <path id="Pfad_138" data-name="Pfad 138" d="M129.987,21.893h9.332c3.016,0,5.1.79,6.427,2.143a6.121,6.121,0,0,1,1.748,4.6v.057a6.237,6.237,0,0,1-4.059,6.059l4.708,6.88h-6.315l-3.976-5.976h-2.4v5.976h-5.47Zm9.078,9.473c1.862,0,2.932-.9,2.932-2.341v-.056c0-1.551-1.127-2.34-2.959-2.34h-3.581v4.737Z" transform="translate(38.421 6.471)" fill="#202b6d"/>
      <path id="Pfad_139" data-name="Pfad 139" d="M150.482,26.686h-5.921V21.894H161.87v4.792h-5.919V41.627h-5.469Z" transform="translate(42.729 6.471)" fill="#202b6d"/>
      <path id="Pfad_140" data-name="Pfad 140" d="M158.07,38.772l3.045-3.638a10.154,10.154,0,0,0,6.4,2.37c1.465,0,2.254-.508,2.254-1.353v-.057c0-.818-.648-1.27-3.326-1.889-4.2-.959-7.442-2.143-7.442-6.2v-.054c0-3.666,2.9-6.315,7.639-6.315a12.423,12.423,0,0,1,8.119,2.621l-2.734,3.861A9.914,9.914,0,0,0,166.5,26.17c-1.327,0-1.974.565-1.974,1.27V27.5c0,.9.678,1.3,3.411,1.916,4.538.987,7.358,2.454,7.358,6.148v.054c0,4.032-3.185,6.427-7.977,6.427a13.784,13.784,0,0,1-9.246-3.269" transform="translate(46.721 6.394)" fill="#202b6d"/>
      <path id="Pfad_141" data-name="Pfad 141" d="M0,75.735V54.9q0-6.565,3.686-9.946a13.786,13.786,0,0,1,9.71-3.383,13.167,13.167,0,0,1,9.31,3.282q3.551,3.282,3.55,9.712v1.408H18.018V54.569a5.829,5.829,0,0,0-1.34-4.12A4.539,4.539,0,0,0,13.2,49.01a4.171,4.171,0,0,0-3.783,1.81,10.086,10.086,0,0,0-1.174,5.425V74.8q0,6.765,4.957,6.765a4.19,4.19,0,0,0,3.616-1.643A7.873,7.873,0,0,0,18.018,75.2V70.309H13.128v-6.5H26.256V75.735q0,6.431-3.716,9.846A13.656,13.656,0,0,1,12.927,89q-5.96,0-9.442-3.383T0,75.735" transform="translate(0 12.289)" fill="#0072d8"/>
      <path id="Pfad_142" data-name="Pfad 142" d="M32.118,69.754V88.307H23.881V42.093H36.473q6.831,0,9.679,3.282T49,55.891a20.273,20.273,0,0,1-1.271,7.7,8.95,8.95,0,0,1-4.152,4.621l6.9,20.093H41.9L36.07,69.754Zm4.287-7.367a3.6,3.6,0,0,0,3.418-1.64,10.008,10.008,0,0,0,.935-4.856,10.1,10.1,0,0,0-.9-4.822q-.906-1.609-3.45-1.609H32.118V62.387Z" transform="translate(7.059 12.442)" fill="#0072d8"/>
      <path id="Pfad_143" data-name="Pfad 143" d="M46.935,75.735V54.9q0-6.565,3.686-9.946a13.786,13.786,0,0,1,9.71-3.383,12.916,12.916,0,0,1,9.345,3.383Q73.19,48.34,73.191,54.9v20.83q0,6.431-3.717,9.846A13.653,13.653,0,0,1,59.862,89q-5.96,0-9.443-3.383t-3.484-9.879M64.953,74.8V56.246a9.888,9.888,0,0,0-1.206-5.393A4.033,4.033,0,0,0,60.13,49.01a4.17,4.17,0,0,0-3.783,1.81,10.094,10.094,0,0,0-1.174,5.426V74.8q0,6.767,4.957,6.765a4.1,4.1,0,0,0,3.584-1.775A8.638,8.638,0,0,0,64.953,74.8" transform="translate(13.873 12.289)" fill="#0072d8"/>
      <path id="Pfad_144" data-name="Pfad 144" d="M72.457,82.815a13.161,13.161,0,0,1-1.64-6.629V42.093h8.237V75.984A6.454,6.454,0,0,0,80.127,80.1a4,4,0,0,0,3.282,1.307q4.353,0,4.353-5.426V42.093H96V76.186a13.362,13.362,0,0,1-1.607,6.629,11.193,11.193,0,0,1-4.488,4.455,13.32,13.32,0,0,1-6.5,1.573,13.136,13.136,0,0,1-6.464-1.573,11.483,11.483,0,0,1-4.488-4.455" transform="translate(20.932 12.442)" fill="#0072d8"/>
      <path id="Pfad_145" data-name="Pfad 145" d="M119.195,56.626q0,7.369-2.981,10.985t-9.679,3.617h-4.287v17.08H94.076V42.092h12.458q6.831,0,9.747,3.617t2.914,10.917m-8.24,0a10.916,10.916,0,0,0-1.038-5.423,3.891,3.891,0,0,0-3.65-1.743h-4.02V63.794h4.02a3.891,3.891,0,0,0,3.65-1.743,10.924,10.924,0,0,0,1.038-5.426" transform="translate(27.806 12.441)" fill="#0072d8"/>
      <path id="Pfad_146" data-name="Pfad 146" d="M17.355,8.151V47.945H8.97V8.151H0V.523H26.256V8.151Z" transform="translate(0 0.155)" fill="#0072d8"/>
      <path id="Pfad_147" data-name="Pfad 147" d="M49.722,47.944H41.268V27.6H32.334V47.944H23.88V.524h8.454V20.04h8.934V.524h8.454Z" transform="translate(7.058 0.155)" fill="#0072d8"/>
      <path id="Pfad_148" data-name="Pfad 148" d="M56.947,20.041H68.838V27.6H56.947V40.385H70.626v7.56H48.562V.523H70.626V8.151H56.947Z" transform="translate(14.354 0.155)" fill="#0072d8"/>
      <path id="Pfad_149" data-name="Pfad 149" d="M70.964.3h5.47V7.691h7.019V.3h5.469V20.038H83.454v-7.5H76.434v7.5h-5.47Z" transform="translate(20.975 0.09)" fill="#202b6d"/>
      <path id="Pfad_150" data-name="Pfad 150" d="M87.3.3h15.872V4.957H92.713V7.943h9.472v4.314H92.713v3.13h10.6v4.65H87.3Z" transform="translate(25.804 0.09)" fill="#202b6d"/>
      <path id="Pfad_151" data-name="Pfad 151" d="M108.773.2h5.272l8.4,19.874h-5.864l-1.437-3.524h-7.612l-1.41,3.524h-5.751Zm4.792,12.093-2.2-5.61-2.227,5.61Z" transform="translate(29.668 0.058)" fill="#202b6d"/>
      <path id="Pfad_152" data-name="Pfad 152" d="M118.666.3h5.47V15.245h9.556v4.792H118.666Z" transform="translate(35.075 0.09)" fill="#202b6d"/>
      <path id="Pfad_153" data-name="Pfad 153" d="M134.746,5.1h-5.921V.3h17.309V5.1h-5.919V20.038h-5.469Z" transform="translate(38.077 0.09)" fill="#202b6d"/>
      <path id="Pfad_154" data-name="Pfad 154" d="M143.812.3h5.47V7.691H156.3V.3h5.469V20.038H156.3v-7.5h-7.019v7.5h-5.47Z" transform="translate(42.507 0.09)" fill="#202b6d"/>
      <path id="Pfad_155" data-name="Pfad 155" d="M159.626,10.318v-.056A10.138,10.138,0,0,1,170.027,0,9.66,9.66,0,0,1,178.4,4.116L174.284,7.3a5.282,5.282,0,0,0-4.313-2.311c-2.762,0-4.707,2.339-4.707,5.215v.057c0,2.959,1.945,5.27,4.707,5.27a5.387,5.387,0,0,0,4.454-2.4l4.116,2.931a10.388,10.388,0,0,1-18.915-5.75" transform="translate(47.181 0)" fill="#202b6d"/>
      <path id="Pfad_156" data-name="Pfad 156" d="M182.862.2h5.272l8.4,19.874H190.67l-1.437-3.524h-7.611l-1.41,3.524h-5.751Zm4.792,12.093-2.2-5.61-2.227,5.61Z" transform="translate(51.566 0.058)" fill="#202b6d"/>
      <path id="Pfad_157" data-name="Pfad 157" d="M192.755.3h9.332c3.016,0,5.1.79,6.427,2.144a6.116,6.116,0,0,1,1.748,4.594V7.1a6.237,6.237,0,0,1-4.059,6.059l4.708,6.88H204.6l-3.976-5.976h-2.4v5.976h-5.47Zm9.078,9.473c1.862,0,2.932-.9,2.932-2.341V7.38c0-1.551-1.127-2.34-2.959-2.34h-3.581V9.777Z" transform="translate(56.973 0.09)" fill="#202b6d"/>
      <path id="Pfad_158" data-name="Pfad 158" d="M208.177.3h15.872V4.957H213.59V7.943h9.472v4.314H213.59v3.13h10.6v4.65H208.177Z" transform="translate(61.532 0.09)" fill="#202b6d"/>
    </g>
  </g>
</svg>
