<svg xmlns="http://www.w3.org/2000/svg" width="910.434" height="722.609" viewBox="0 0 910.434 722.609">
  <g id="Gruppe_85" data-name="Gruppe 85" transform="translate(-1143.275 -6042.249)">
    <g id="Gruppe_81" data-name="Gruppe 81" transform="translate(1175.522 6115.059)">
      <g id="Gruppe_230" data-name="Gruppe 230" transform="translate(0 0)">
        <path id="Pfad_68" data-name="Pfad 68" d="M848.96,0V399.234H719.153c-105.365,0-206.958,40.918-283.62,113.831l-141.1,134.98V399.234H0V0Z" transform="translate(0 -0.001)" fill="none" stroke="#346999" stroke-width="1.5"/>
      </g>
    </g>
    <g id="Gruppe_82" data-name="Gruppe 82" transform="translate(1144.025 6077.81)">
      <g id="Gruppe_231" data-name="Gruppe 231" transform="translate(0 0)">
        <path id="Pfad_68-2" data-name="Pfad 68" d="M848.96,0V399.234H719.153c-105.365,0-206.958,40.918-283.62,113.831l-141.1,134.98V399.234H0V0Z" transform="translate(0 -0.001)" fill="none" stroke="#0072d8" stroke-width="1.5"/>
      </g>
    </g>
    <g id="Gruppe_83" data-name="Gruppe 83" transform="translate(1203.999 6043)">
      <g id="Gruppe_229" data-name="Gruppe 229" transform="translate(0 0)">
        <path id="Pfad_68-3" data-name="Pfad 68" d="M848.96,0V399.234H719.153c-105.365,0-206.958,40.918-283.62,113.831l-141.1,134.98V399.234H0V0Z" transform="translate(0 -0.001)" fill="none" stroke="#61a0d8" stroke-width="1.5"/>
      </g>
    </g>
  </g>
</svg>
