<svg xmlns="http://www.w3.org/2000/svg" xmlns:xlink="http://www.w3.org/1999/xlink" width="228.05" height="80.842" viewBox="0 0 228.05 80.842">
  <defs>
    <clipPath id="clip-path">
      <rect id="Rechteck_54" data-name="Rechteck 54" width="228.05" height="80.842" fill="none"/>
    </clipPath>
  </defs>
  <g id="Gruppe_164" data-name="Gruppe 164" transform="translate(0 0)">
    <path id="Pfad_109" data-name="Pfad 109" d="M71.279,21.894H83.947v3.713H75.6v2.384h7.56v3.443H75.6v2.5h8.46v3.711H71.279Z" transform="translate(2.429 0.746)" fill="#0072d8"/>
    <path id="Pfad_110" data-name="Pfad 110" d="M89.861,29.634l-5.176-7.74H89.7l2.789,4.433,2.814-4.433h4.9l-5.176,7.695,5.4,8.055H95.418L92.4,32.9l-3.037,4.747H84.46Z" transform="translate(2.878 0.746)" fill="#0072d8"/>
    <g id="Gruppe_165" data-name="Gruppe 165" transform="translate(0 0)">
      <g id="Gruppe_164-2" data-name="Gruppe 164" clip-path="url(#clip-path)">
        <path id="Pfad_111" data-name="Pfad 111" d="M101.274,21.894h6.751c3.982,0,6.548,2.047,6.548,5.534v.045c0,3.712-2.858,5.671-6.773,5.671h-2.16v4.5h-4.366Zm6.436,7.83c1.552,0,2.5-.81,2.5-2.047v-.044c0-1.351-.945-2.07-2.519-2.07H105.64v4.162Z" transform="translate(3.451 0.746)" fill="#0072d8"/>
        <path id="Pfad_112" data-name="Pfad 112" d="M115.7,21.894h12.668v3.713h-8.348v2.384h7.56v3.443h-7.56v2.5h8.46v3.711H115.7Z" transform="translate(3.942 0.746)" fill="#0072d8"/>
        <path id="Pfad_113" data-name="Pfad 113" d="M129.987,21.893h7.448c2.407,0,4.072.631,5.13,1.71a4.886,4.886,0,0,1,1.395,3.668v.045a4.979,4.979,0,0,1-3.24,4.836l3.758,5.491h-5.04l-3.174-4.77h-1.912v4.77h-4.366Zm7.246,7.561c1.486,0,2.34-.72,2.34-1.869v-.044c0-1.238-.9-1.868-2.362-1.868h-2.858v3.781Z" transform="translate(4.429 0.746)" fill="#0072d8"/>
        <path id="Pfad_114" data-name="Pfad 114" d="M149.287,25.719h-4.726V21.894h13.815v3.825h-4.725V37.644h-4.365Z" transform="translate(4.926 0.746)" fill="#0072d8"/>
        <path id="Pfad_115" data-name="Pfad 115" d="M158.07,35.313l2.43-2.9a8.1,8.1,0,0,0,5.107,1.891c1.17,0,1.8-.405,1.8-1.08v-.046c0-.652-.517-1.013-2.654-1.508-3.352-.765-5.94-1.71-5.94-4.951v-.043c0-2.926,2.317-5.04,6.1-5.04a9.915,9.915,0,0,1,6.481,2.092l-2.182,3.082a7.913,7.913,0,0,0-4.41-1.552c-1.059,0-1.576.451-1.576,1.013v.044c0,.72.541,1.035,2.723,1.529,3.622.788,5.873,1.959,5.873,4.907v.043c0,3.218-2.542,5.13-6.367,5.13a11,11,0,0,1-7.38-2.609" transform="translate(5.386 0.737)" fill="#0072d8"/>
        <path id="Pfad_116" data-name="Pfad 116" d="M0,68.84V52.215q0-5.24,2.942-7.939a11,11,0,0,1,7.75-2.7A10.51,10.51,0,0,1,18.123,44.2q2.834,2.62,2.833,7.751v1.124H14.381V51.947a4.652,4.652,0,0,0-1.069-3.288,3.623,3.623,0,0,0-2.78-1.149,3.329,3.329,0,0,0-3.019,1.445,8.05,8.05,0,0,0-.937,4.33V68.092q0,5.4,3.956,5.4a3.344,3.344,0,0,0,2.886-1.311,6.284,6.284,0,0,0,.963-3.768v-3.9h-3.9V59.325H20.957V68.84q0,5.133-2.966,7.859a10.9,10.9,0,0,1-7.673,2.726,10.352,10.352,0,0,1-7.536-2.7Q0,74.025,0,68.84" transform="translate(0 1.417)" fill="#fff"/>
        <path id="Pfad_117" data-name="Pfad 117" d="M30.456,64.17V78.979H23.881V42.093h10.05q5.452,0,7.726,2.619t2.271,8.394a16.181,16.181,0,0,1-1.014,6.148A7.143,7.143,0,0,1,39.6,62.942L45.1,78.979H38.262L33.61,64.17Zm3.422-5.88a2.872,2.872,0,0,0,2.728-1.309,7.988,7.988,0,0,0,.747-3.876,8.061,8.061,0,0,0-.721-3.849,2.876,2.876,0,0,0-2.754-1.284H30.456V58.291Z" transform="translate(0.814 1.434)" fill="#fff"/>
        <path id="Pfad_118" data-name="Pfad 118" d="M46.935,68.84V52.215q0-5.24,2.942-7.939a11,11,0,0,1,7.75-2.7,10.309,10.309,0,0,1,7.459,2.7q2.8,2.7,2.805,7.939V68.84q0,5.133-2.967,7.859a10.9,10.9,0,0,1-7.672,2.726,10.354,10.354,0,0,1-7.537-2.7q-2.78-2.7-2.781-7.885m14.381-.749V53.285a7.892,7.892,0,0,0-.963-4.3,3.219,3.219,0,0,0-2.886-1.47,3.328,3.328,0,0,0-3.019,1.445,8.057,8.057,0,0,0-.937,4.331V68.092q0,5.4,3.956,5.4a3.27,3.27,0,0,0,2.86-1.417,6.9,6.9,0,0,0,.989-3.983" transform="translate(1.599 1.417)" fill="#fff"/>
        <path id="Pfad_119" data-name="Pfad 119" d="M72.126,74.6A10.5,10.5,0,0,1,70.817,69.3V42.093h6.575v27.05a5.151,5.151,0,0,0,.856,3.287,3.191,3.191,0,0,0,2.619,1.043q3.474,0,3.474-4.331V42.093h6.576V69.3A10.665,10.665,0,0,1,89.635,74.6a8.934,8.934,0,0,1-3.582,3.556,10.631,10.631,0,0,1-5.186,1.255,10.484,10.484,0,0,1-5.159-1.255A9.165,9.165,0,0,1,72.126,74.6" transform="translate(2.413 1.434)" fill="#fff"/>
        <path id="Pfad_120" data-name="Pfad 120" d="M114.125,53.692q0,5.882-2.379,8.768t-7.726,2.887H100.6V78.979H94.076V42.092h9.944q5.452,0,7.779,2.887t2.326,8.713m-6.577,0a8.713,8.713,0,0,0-.828-4.329,3.106,3.106,0,0,0-2.913-1.391H100.6V59.414h3.209a3.106,3.106,0,0,0,2.913-1.391,8.719,8.719,0,0,0,.828-4.331" transform="translate(3.206 1.434)" fill="#fff"/>
        <path id="Pfad_121" data-name="Pfad 121" d="M13.852,6.612V38.373H7.159V6.612H0V.523H20.957V6.612Z" transform="translate(0 0.018)" fill="#fff"/>
        <path id="Pfad_122" data-name="Pfad 122" d="M44.506,38.373H37.758V22.137H30.627V38.373H23.88V.524h6.747V16.1h7.131V.524h6.747Z" transform="translate(0.814 0.018)" fill="#fff"/>
        <path id="Pfad_123" data-name="Pfad 123" d="M55.255,16.1h9.491v6.035H55.255v10.2H66.172v6.034H48.562V.523h17.61V6.612H55.255Z" transform="translate(1.655 0.018)" fill="#fff"/>
        <path id="Pfad_124" data-name="Pfad 124" d="M70.964.3H75.33V6.2h5.6V.3H85.3v15.75H80.933V10.069h-5.6v5.985H70.964Z" transform="translate(2.418 0.01)" fill="#0072d8"/>
        <path id="Pfad_125" data-name="Pfad 125" d="M87.3.3H99.969V4.018H91.62V6.4h7.56V9.845H91.62v2.5h8.46v3.711H87.3Z" transform="translate(2.975 0.01)" fill="#0072d8"/>
        <path id="Pfad_126" data-name="Pfad 126" d="M107.078.2h4.208l6.7,15.863h-4.68l-1.147-2.813h-6.075l-1.125,2.813h-4.59ZM110.9,9.848l-1.755-4.478-1.778,4.478Z" transform="translate(3.42 0.007)" fill="#0072d8"/>
        <path id="Pfad_127" data-name="Pfad 127" d="M118.666.3h4.366V12.23h7.627v3.825H118.666Z" transform="translate(4.043 0.01)" fill="#0072d8"/>
        <path id="Pfad_128" data-name="Pfad 128" d="M133.551,4.13h-4.726V.3H142.64V4.13h-4.725V16.055h-4.365Z" transform="translate(4.39 0.01)" fill="#0072d8"/>
        <path id="Pfad_129" data-name="Pfad 129" d="M143.812.3h4.366V6.2h5.6V.3h4.365v15.75H153.78V10.069h-5.6v5.985h-4.366Z" transform="translate(4.9 0.01)" fill="#0072d8"/>
        <path id="Pfad_130" data-name="Pfad 130" d="M159.626,8.235V8.191A8.091,8.091,0,0,1,167.928,0a7.711,7.711,0,0,1,6.683,3.285l-3.285,2.543a4.216,4.216,0,0,0-3.442-1.845,3.894,3.894,0,0,0-3.757,4.162v.045c0,2.362,1.552,4.207,3.757,4.207a4.3,4.3,0,0,0,3.555-1.912l3.285,2.339a8.291,8.291,0,0,1-15.1-4.589" transform="translate(5.439 0)" fill="#0072d8"/>
        <path id="Pfad_131" data-name="Pfad 131" d="M181.166.2h4.208l6.7,15.863H187.4l-1.147-2.813h-6.075l-1.125,2.813h-4.59Zm3.825,9.652-1.755-4.478-1.778,4.478Z" transform="translate(5.944 0.007)" fill="#0072d8"/>
        <path id="Pfad_132" data-name="Pfad 132" d="M192.755.3H200.2c2.407,0,4.072.631,5.13,1.711a4.882,4.882,0,0,1,1.395,3.667v.045a4.979,4.979,0,0,1-3.24,4.836l3.758,5.491h-5.04l-3.174-4.77h-1.912v4.77h-4.366ZM200,7.865c1.486,0,2.34-.72,2.34-1.869V5.952c0-1.238-.9-1.868-2.362-1.868h-2.858V7.865Z" transform="translate(6.568 0.01)" fill="#0072d8"/>
        <path id="Pfad_133" data-name="Pfad 133" d="M208.177.3h12.668V4.018H212.5V6.4h7.56V9.845H212.5v2.5h8.46v3.711h-12.78Z" transform="translate(7.093 0.01)" fill="#0072d8"/>
      </g>
    </g>
  </g>
</svg>
